{"title":"DAP - Double Anal Pounding (XXX) (DVDRip)","uid":6350141,"size":2199875932,"categoryP":"porn","categoryS":"movies","magnet":"?xt=urn:btih:6a28b140ae75233375f46f67809b0c32d0c77ba1&amp;dn=DAP+-+Double+Anal+Pounding+%28XXX%29+%28DVDRip%29&amp;tr=udp%3A%2F%2Ftracker.openbittorrent.com%3A80&amp;tr=udp%3A%2F%2Fopen.demonii.com%3A1337&amp;tr=udp%3A%2F%2Ftracker.coppersurfer.tk%3A6969&amp;tr=udp%3A%2F%2Fexodus.desync.com%3A6969","seeders":0,"leechers":1,"uploader":null,"files":-1,"time":1303971203,"description":"SCREENSHOTS:\n &lt;a href=&quot;\nhttp://lnk.co/G2MLH&quot; rel=&quot;nofollow&quot; target=&quot;_NEW&quot;&gt;\nhttp://lnk.co/G2MLH&lt;/a&gt;\n &lt;a href=&quot;\nhttp://lnk.co/G2PNO&quot; rel=&quot;nofollow&quot; target=&quot;_NEW&quot;&gt;\nhttp://lnk.co/G2PNO&lt;/a&gt;\n &lt;a href=&quot;\nhttp://lnk.co/G2PNE&quot; rel=&quot;nofollow&quot; target=&quot;_NEW&quot;&gt;\nhttp://lnk.co/G2PNE&lt;/a&gt;\n\nVideo\nID                               : 0\nFormat                           : MPEG-4 Visual\nFormat profile                   : Advanced Simple@L5\nFormat settings, BVOP            : 3\nFormat settings, QPel            : No\nFormat settings, GMC             : No warppoints\nFormat settings, Matrix          : Default (MPEG)\nCodec ID                         : XVID\nCodec ID/Hint                    : XviD\nDuration                         : 3h 12mn\nBit rate                         : 1 370 Kbps\nWidth                            : 544 pixels\nHeight                           : 416 pixels\nDisplay aspect ratio             : 4:3\nFrame rate                       : 29.970 fps\nColor space                      : YUV\nChroma subsampling               : 4:2:0\nBit depth                        : 8 bits\nScan type                        : Progressive\nCompression mode                 : Lossy\nBits/(Pixel*Frame)               : 0.202\nStream size                      : 1.85 GiB (90%)\n\nAudio\nID                               : 1\nFormat                           : MPEG Audio\nFormat version                   : Version 1\nFormat profile                   : Layer 3\nMode                             : Joint stereo\nMode extension                   : MS Stereo\nCodec ID                         : 55\nCodec ID/Hint                    : MP3\nDuration                         : 3h 12mn\nBit rate mode                    : Variable\nBit rate                         : 128 Kbps\nChannel(s)                       : 2 channels\nSampling rate                    : 48.0 KHz\nCompression mode                 : Lossy\nStream size                      : 181 MiB (9%)\nLanguage                         : English\n\nencoded for iPod,PSP,Zune and other handheld devices...:)","torrent":{"xt":"urn:btih:6a28b140ae75233375f46f67809b0c32d0c77ba1","amp;dn":"DAP+-+Double+Anal+Pounding+%28XXX%29+%28DVDRip%29","amp;tr":["udp%3A%2F%2Ftracker.openbittorrent.com%3A80","udp%3A%2F%2Fopen.demonii.com%3A1337","udp%3A%2F%2Ftracker.coppersurfer.tk%3A6969","udp%3A%2F%2Fexodus.desync.com%3A6969"],"infoHash":"6a28b140ae75233375f46f67809b0c32d0c77ba1","infoHashBuffer":{"type":"Buffer","data":[106,40,177,64,174,117,35,51,117,244,111,103,128,155,12,50,208,199,123,161]},"announce":[],"urlList":[]}}